<svg xmlns="http://www.w3.org/2000/svg" width="1200" height="640" viewBox="0 0 1200 640" role="img"><rect width="1200" height="640" rx="34" fill="#fffaf0"/><rect x="28" y="28" width="1144" height="584" rx="28" fill="#ffffff" stroke="#dce8ee" stroke-width="4"/><text x="70" y="92" font-family="Arial,sans-serif" font-size="34" font-weight="700" fill="#10263a">Turn a need into a fair test</text><g><rect x="70" y="175" width="300" height="300" rx="24" fill="#0f6d83"/><text x="220" y="227" text-anchor="middle" font-family="Arial,sans-serif" font-size="25" font-weight="700" fill="white">NEED</text><text x="220" y="273" text-anchor="middle" font-family="Arial,sans-serif" font-size="20" fill="white">Who is it for?</text><text x="220" y="307" text-anchor="middle" font-family="Arial,sans-serif" font-size="20" fill="white">What must be protected?</text></g><g><path d="M370 325H433" stroke="#38d9ff" stroke-width="10"/><path d="M427 307L455 325L427 343" fill="#38d9ff"/></g><g><rect x="455" y="175" width="290" height="300" rx="24" fill="#071a2b"/><text x="600" y="227" text-anchor="middle" font-family="Arial,sans-serif" font-size="25" font-weight="700" fill="white">CRITERION</text><text x="600" y="273" text-anchor="middle" font-family="Arial,sans-serif" font-size="20" fill="white">Observable success</text><text x="600" y="307" text-anchor="middle" font-family="Arial,sans-serif" font-size="20" fill="white">Realistic and testable</text></g><g><path d="M745 325H808" stroke="#38d9ff" stroke-width="10"/><path d="M802 307L830 325L802 343" fill="#38d9ff"/></g><g><rect x="830" y="175" width="300" height="300" rx="24" fill="#2d8a67"/><text x="980" y="227" text-anchor="middle" font-family="Arial,sans-serif" font-size="25" font-weight="700" fill="white">TEST</text><text x="980" y="273" text-anchor="middle" font-family="Arial,sans-serif" font-size="20" fill="white">Input condition</text><text x="980" y="307" text-anchor="middle" font-family="Arial,sans-serif" font-size="20" fill="white">Expected output</text><text x="980" y="341" text-anchor="middle" font-family="Arial,sans-serif" font-size="20" fill="white">Recorded result</text></g></svg>