<svg xmlns="http://www.w3.org/2000/svg" width="1200" height="640" viewBox="0 0 1200 640" role="img"><rect width="1200" height="640" rx="34" fill="#fffaf0"/><rect x="28" y="28" width="1144" height="584" rx="28" fill="#ffffff" stroke="#dce8ee" stroke-width="4"/><text x="70" y="92" font-family="Arial,sans-serif" font-size="34" font-weight="700" fill="#10263a">Read both paths through a decision</text><ellipse cx="160" cy="325" rx="100" ry="55" fill="#0f6d83"/><text x="160" y="335" text-anchor="middle" font-family="Arial" font-size="24" font-weight="700" fill="white">START</text><g><path d="M260 325H348" stroke="#38d9ff" stroke-width="10"/><path d="M342 307L370 325L342 343" fill="#38d9ff"/></g><polygon points="370,270 620,270 655,325 405,325" fill="#2d8a67" transform="translate(0,28)"/><text x="512" y="340" text-anchor="middle" font-family="Arial" font-size="21" font-weight="700" fill="white">READ LDR A4</text><g><path d="M655 325H738" stroke="#38d9ff" stroke-width="10"/><path d="M732 307L760 325L732 343" fill="#38d9ff"/></g><polygon points="860,225 980,325 860,425 740,325" fill="#071a2b"/><text x="860" y="316" text-anchor="middle" font-family="Arial" font-size="20" font-weight="700" fill="white">LDR &lt; 350?</text><text x="860" y="345" text-anchor="middle" font-family="Arial" font-size="18" fill="#38d9ff">decision</text><path d="M860 225V150H1060" stroke="#2d8a67" stroke-width="7" fill="none"/><text x="950" y="137" text-anchor="middle" font-family="Arial" font-size="19" fill="#2d8a67">YES → LED ON</text><path d="M860 425V505H1060" stroke="#d95d4f" stroke-width="7" fill="none"/><text x="950" y="545" text-anchor="middle" font-family="Arial" font-size="19" fill="#d95d4f">NO → LED OFF</text></svg>