<svg xmlns="http://www.w3.org/2000/svg" width="1200" height="640" viewBox="0 0 1200 640" role="img"><rect width="1200" height="640" rx="34" fill="#fffaf0"/><rect x="28" y="28" width="1144" height="584" rx="28" fill="#ffffff" stroke="#dce8ee" stroke-width="4"/><text x="70" y="92" font-family="Arial,sans-serif" font-size="34" font-weight="700" fill="#10263a">Fictional worked example: light-level ranges</text><text x="115" y="219" font-family="Arial" font-size="21" font-weight="700" fill="#10263a">bright room</text><rect x="330" y="185" width="700" height="58" rx="20" fill="#dce8ee"/><rect x="834" y="185" width="91" height="58" rx="20" fill="#2d8a67"/><text x="1060" y="223" font-family="Arial" font-size="19" fill="#10263a">720–850</text><text x="115" y="334" font-family="Arial" font-size="21" font-weight="700" fill="#10263a">dim room</text><rect x="330" y="300" width="700" height="58" rx="20" fill="#dce8ee"/><rect x="603" y="300" width="91" height="58" rx="20" fill="#ffb84d"/><text x="1060" y="338" font-family="Arial" font-size="19" fill="#10263a">390–520</text><text x="115" y="449" font-family="Arial" font-size="21" font-weight="700" fill="#10263a">covered sensor</text><rect x="330" y="415" width="700" height="58" rx="20" fill="#dce8ee"/><rect x="386" y="415" width="91" height="58" rx="20" fill="#0f6d83"/><text x="1060" y="453" font-family="Arial" font-size="19" fill="#10263a">80–210</text><line x1="540" y1="150" x2="540" y2="510" stroke="#d95d4f" stroke-width="5" stroke-dasharray="12 10"/><text x="540" y="545" text-anchor="middle" font-family="Arial" font-size="20" font-weight="700" fill="#d95d4f">worked-example threshold: 300</text></svg>